<svg width="171" height="64" viewBox="0 0 171 64" fill="none" xmlns="http://www.w3.org/2000/svg">
<g id="_2310502456944">
<path id="path30" d="M162.3 23.3312H170.105C169.118 14.5821 163.57 9.9834 155.859 9.9834C148.054 9.9834 142.835 14.7505 142.835 22.9386C142.835 32.2483 149.559 34.3232 153.132 35.1647C157.74 36.2302 162.253 36.3425 162.253 41.0532C162.253 44.25 159.996 45.8203 156.799 45.8203C152.85 45.8203 150.217 43.4648 149.559 39.2028H141.848C142.318 48.4003 147.913 53.3355 156.141 53.3355C163.758 53.3355 170.011 49.1855 170.011 40.2122C170.011 30.5658 162.817 28.8273 157.787 27.9299C154.354 27.3131 150.593 26.7522 150.593 22.4338C150.593 19.4053 152.521 17.5547 155.765 17.5547C159.526 17.5547 161.783 20.0785 162.3 23.3312Z" fill="white"/>
<path id="path32" d="M137.57 11.3853H130.188V52.0452H137.57V11.3853Z" fill="white"/>
<path id="path26" d="M107.902 37.8566H117.541C116.036 42.2313 112.651 44.306 108.748 44.306C101.884 44.306 98.6872 37.9688 98.6872 31.6875C98.6872 25.35 101.696 18.9006 108.702 18.9006C112.98 18.9006 116.177 21.2561 117.4 25.4623L125.345 25.4623C123.982 15.9845 117.023 10.5444 108.796 10.5444C98.6402 10.5444 91.0234 18.7884 91.0234 31.7997C91.0234 44.9791 99.2982 52.7747 108.748 52.7747C118.058 52.7747 125.345 45.5401 125.345 34.2113V30.9023H107.902V37.8566Z" fill="white"/>
<path id="path36" d="M74.145 10.5439C65.682 10.5439 59.4288 16.8811 59.4758 27.4247H67.0926C66.9984 22.826 69.4432 18.6198 73.7688 18.6198C77.5302 18.6198 79.7399 21.7605 79.7399 25.3496C79.7399 28.9389 77.5302 30.958 73.4396 33.1453C67.8447 36.1176 63.8484 38.0244 59.7579 39.707V52.0451H88.2499V43.7448H68.6899C68.6899 43.7448 68.755 43.7205 68.787 43.709C72.1139 42.5065 74.6133 41.2001 77.5772 39.6508C83.9243 36.286 87.5446 32.0796 87.5446 24.9011C87.5446 16.0959 82.0908 10.5439 74.145 10.5439Z" fill="white"/>
<g id="Group">
<path id="path22" d="M39.4467 37.744C29.8553 37.8001 28.3038 44.6982 27.7867 50.5308L27.5517 53.1105H25.6238L25.3888 50.5308C24.8717 44.6982 23.2732 37.8001 14.0108 37.744C12.4593 33.9301 11.8011 30.8456 11.8011 27.3685C11.8011 18.6758 17.7722 10.5436 26.6111 10.5436C35.4502 10.5436 41.3273 18.6194 41.3273 27.4248C41.3273 30.8456 41.0452 33.9301 39.4467 37.744ZM26.5173 0C11.9423 0 0 14.2452 0 31.6866C0 49.1847 11.9423 63.4296 26.5173 63.4296C41.2332 63.4296 53.1285 49.1847 53.1285 31.6866C53.1285 14.2452 41.2332 0 26.5173 0Z" fill="#29B24A"/>
</g>
</g>
</svg>
