<svg width="95" height="95" viewBox="0 0 95 95" fill="none" xmlns="http://www.w3.org/2000/svg">
<g id="icons8-&#208;&#178;&#208;&#186;&#208;&#190;&#208;&#189;&#209;&#130;&#208;&#176;&#208;&#186;&#209;&#130;&#208;&#181;-144 2">
<path id="Vector" d="M90.5725 69.6705C87.016 63.2699 77.8544 55.5789 74.0722 52.2321C73.0371 51.3157 72.9263 49.7304 73.8684 48.7171C81.0864 40.9607 86.8596 32.0486 88.8467 26.6632C89.7235 24.2843 87.9086 21.7707 85.3515 21.7707H77.9237C75.4755 21.7707 74.0425 22.6495 73.3597 24.0488C67.3609 36.3414 62.215 41.6614 58.6129 44.7706C56.5962 46.5123 53.4513 45.0695 53.4513 42.4194C53.4513 37.3131 53.4513 30.7126 53.4513 26.0319C53.4513 23.7618 51.5948 21.9251 49.3049 21.9251L35.7358 21.7707C34.0277 21.7707 33.052 23.7044 34.0772 25.0601L36.3176 28.2763C37.1608 29.3905 37.616 30.7463 37.616 32.1376L37.6041 46.6212C37.6041 49.1406 34.5502 50.3717 32.7373 48.6063C26.6039 42.6331 21.2819 30.4355 19.3661 24.6029C18.8119 22.9147 17.2306 21.7747 15.4374 21.7707L8.12045 21.7529C5.37535 21.7529 3.36847 24.3555 4.11462 26.9759C10.8002 50.4429 24.5178 72.7679 48.9645 75.1884C51.3732 75.4259 53.4513 73.4864 53.4513 71.0856V63.4738C53.4513 61.2907 55.1633 59.4145 57.3641 59.3591C57.4413 59.3571 57.5185 59.3571 57.5957 59.3571C64.0616 59.3571 71.3034 68.768 73.8367 73.1697C74.565 74.4364 75.9267 75.2082 77.3992 75.2082H87.2416C90.1134 75.2082 91.956 72.1623 90.5725 69.6705Z" fill="white"/>
</g>
</svg>
