<svg width="239" height="51" viewBox="0 0 239 51" fill="none" xmlns="http://www.w3.org/2000/svg">
<g id="Yandex_Maps_RU_wordmark 1">
<path id="Vector" d="M17.2297 40.0448H22.3196V10.7681H14.904C7.44864 10.7681 3.54153 14.5954 3.54153 20.2435C3.54153 24.7486 5.68114 27.4065 9.5218 30.1441L2.86377 40.0448H8.3789L15.7944 28.9614L13.2296 27.2337C10.1065 25.134 8.59153 23.4861 8.59153 19.9511C8.59153 16.8281 10.7843 14.7283 14.9572 14.7283H17.2297V40.0448ZM115.505 40.4567C117.831 40.4567 119.466 40.0448 120.688 39.1544V35.0745C119.426 35.9516 117.911 36.4965 115.811 36.4965C112.223 36.4965 110.748 33.719 110.748 29.3468C110.748 24.7486 112.568 22.3964 115.851 22.3964C117.791 22.3964 119.678 23.0608 120.688 23.6987V19.4461C119.638 18.8481 117.791 18.4361 115.306 18.4361C108.9 18.4361 105.565 23.021 105.565 29.4664C105.565 36.5496 108.807 40.4567 115.505 40.4567ZM84.1688 38.6095V34.5164C82.6139 35.5795 79.9959 36.4965 77.5506 36.4965C73.8827 36.4965 72.5006 34.7821 72.288 31.2339H84.3814V28.5892C84.3814 21.2136 81.1388 18.4361 76.1153 18.4361C70.0155 18.4361 67.1051 23.1007 67.1051 29.5062C67.1051 36.8819 70.7331 40.4567 77.1386 40.4567C80.3281 40.4567 82.6936 39.6195 84.1688 38.6095ZM100.183 40.0448H105.857L97.817 28.7886L104.9 18.8481H99.8371L92.7671 28.7886V18.8481H87.7436V40.0448H92.7671V29.7986L100.183 40.0448ZM65.8825 36.0845H63.6498V18.8481H49.0314V20.6687C49.0314 25.8383 48.6992 32.5362 46.9317 36.0845H45.3635V44.8821H50.0015V40.0448H61.2444V44.8821H65.8825V36.0845ZM38.2536 18.8481V27.2337H31.5557V18.8481H26.5323V40.0448H31.5557V31.194H38.2536V40.0448H43.2638V18.8481H38.2536ZM76.0356 22.3964C78.5207 22.3964 79.2782 24.4562 79.2782 27.1141V27.5261H72.288C72.4209 24.1639 73.6302 22.3964 76.0356 22.3964ZM58.6397 36.0845H51.5564C52.9518 32.8818 53.3372 27.1141 53.3372 23.4462V22.8083H58.6397V36.0845ZM146.855 40.0448H152.796L142.39 24.6689L151.825 10.7681H146.643L137.579 24.2436V10.7681H132.489V40.0448H137.579V26.3035L146.855 40.0448ZM169.899 25.5858C169.899 20.4561 167.281 18.5158 161.979 18.5158C158.656 18.5158 156.038 19.5657 154.523 20.4561V24.629C155.865 23.6057 158.816 22.516 161.394 22.516C163.786 22.516 164.889 23.3532 164.889 25.639V26.8085H164.078C156.41 26.8085 153.008 29.3468 153.008 33.6393C153.008 37.9318 155.613 40.3371 159.493 40.3371C162.444 40.3371 163.706 39.367 164.676 38.357H164.889C164.929 38.9019 165.102 39.6195 165.261 40.0448H170.152C169.979 38.3171 169.899 36.5895 169.899 34.8619V25.5858ZM164.889 34.9815C164.251 35.9118 163.068 36.6692 161.301 36.6692C159.201 36.6692 158.138 35.4865 158.138 33.6791C158.138 31.2737 159.866 30.3966 164.171 30.3966H164.889V34.9815ZM178.577 18.8481H173.939V46.1446H178.949V37.5596C180.225 39.4467 182.072 40.4567 184.225 40.4567C189.102 40.4567 192.478 36.5496 192.478 29.4265C192.478 22.3432 189.195 18.4361 184.478 18.4361C182.112 18.4361 180.172 19.5258 178.83 21.5857L178.577 18.8481ZM182.963 36.4965C180.305 36.4965 178.949 34.3569 178.949 29.4664C178.949 24.536 180.385 22.3964 183.215 22.3964C185.953 22.3964 187.295 24.536 187.295 29.4265C187.295 34.3569 185.86 36.4965 182.963 36.4965ZM210.126 22.8083V18.8481H193.315V22.8083H199.216V40.0448H204.226V22.8083H210.126ZM213.077 18.8481V40.0448H220.705C225.635 40.0448 229.13 37.5198 229.13 32.5362C229.13 27.8185 226.007 25.3333 220.785 25.3333H218.087V18.8481H213.077ZM230.978 18.8481V40.0448H236.001V18.8481H230.978ZM220.412 36.0845H218.087V29.2936H220.532C222.685 29.2936 223.947 30.2637 223.947 32.709C223.947 35.1542 222.552 36.0845 220.412 36.0845Z" fill="white"/>
</g>
</svg>
