<svg width="57" height="57" viewBox="0 0 57 57" fill="none" xmlns="http://www.w3.org/2000/svg">
<g id="Yandex_Maps_icon 1" clip-path="url(#clip0_223_109)">
<path id="Vector" d="M28.4475 3.77783C16.8874 3.77783 7.5166 13.1486 7.5166 24.7088C7.5166 30.4867 9.85772 35.7184 13.6441 39.5059C17.4316 43.2954 26.3544 48.7793 26.8777 54.5353C26.9562 55.3984 27.581 56.1051 28.4475 56.1051C29.3141 56.1051 29.9389 55.3984 30.0173 54.5353C30.5406 48.7793 39.4635 43.2954 43.2509 39.5059C47.0373 35.7184 49.3784 30.4867 49.3784 24.7088C49.3784 13.1486 40.0077 3.77783 28.4475 3.77783Z" fill="#FF4433"/>
<path id="Vector_2" d="M28.4474 32.0354C32.4934 32.0354 35.7732 28.7555 35.7732 24.7096C35.7732 20.6637 32.4934 17.3838 28.4474 17.3838C24.4015 17.3838 21.1216 20.6637 21.1216 24.7096C21.1216 28.7555 24.4015 32.0354 28.4474 32.0354Z" fill="white"/>
</g>
<defs>
<clipPath id="clip0_223_109">
<rect width="55.8158" height="55.8158" fill="white" transform="translate(0.539551 0.289551)"/>
</clipPath>
</defs>
</svg>
